<?xml version="1.0" encoding="UTF-8"?>
<svg width="24px" height="24px" viewBox="0 0 24 24" version="1.1" xmlns="http://www.w3.org/2000/svg" xmlns:xlink="http://www.w3.org/1999/xlink">
    <!-- Generator: Sketch 47 (45396) - http://www.bohemiancoding.com/sketch -->
    <title>360</title>
    <desc>Created with Sketch.</desc>
    <defs></defs>
    <g id="__wesketch_export" stroke="none" stroke-width="1" fill="none" fill-rule="evenodd">
        <g id="360" fill-rule="nonzero" fill="#FFFFFF">
            <g id="Shape">
                <path d="M22.2461824,6.93929865 C21.9651247,6.66356907 21.6707468,6.46642909 21.3876911,6.3245682 C20.3606983,5.80973978 18.2354492,6.58564549 17.5794259,6.88335351 C16.0296126,7.58599774 15.0039518,8.25467527 14.323952,8.82478281 C16.939387,6.11344191 21.4216577,4.06411842 21.4216577,4.06411842 C16.3786036,-0.504734096 12.5516901,-0.428142533 10.5663039,0.591524113 C10.2159809,0.771347754 9.9362552,0.989134174 9.71247465,1.21224869 C8.90060422,2.02478515 8.96653955,4.28656692 9.04246508,5.00253143 C9.23960507,6.87402933 9.59925235,8.12480265 9.96222971,8.95465545 C8.20195607,5.63258018 7.63584461,0.772013783 7.63584461,0.772013783 C1.73696317,4.1653525 0.63204679,7.82975869 0.991028066,10.0322653 C1.05429935,10.4205511 1.1755138,10.7542239 1.31937272,11.0352816 C1.84285932,12.0582783 4.0147293,12.6909911 4.71937157,12.8395121 C6.65480675,13.2477784 7.99349385,13.2737529 8.89794018,13.1658587 C5.16426856,14.018356 0.000666005854,13.0659567 0.000666005854,13.0659567 C1.50918654,19.7014491 4.68740291,21.8346903 6.89790165,22.1390584 C7.28751955,22.1930055 7.64183871,22.1750232 7.95353303,22.1204101 C9.08508995,21.920606 10.3285371,20.0311258 10.6775282,19.401077 C11.5420137,17.8419394 11.9675963,16.6537714 12.1627383,15.7779636 C11.7138452,19.5282856 9.33750905,23.897334 9.33750905,23.897334 C16.1135302,24.5247187 19.1279073,22.166365 20.1042831,20.1596663 C20.2761145,19.8060132 20.3700224,19.4636822 20.4146453,19.1506559 C20.5764866,18.0131049 19.1658701,16.2441731 18.6756841,15.7166904 C17.1644995,14.0909515 15.9903178,13.2897372 15.1671251,12.8974553 C18.7116489,14.4019798 22.373391,18.3361214 22.373391,18.3361214 C25.1180326,12.1095614 23.8392867,8.5024323 22.2461824,6.93929865 Z M12.1181154,14.659727 C10.7001726,14.659727 9.55129939,13.5101877 9.55129939,12.092911 C9.55129939,10.6749683 10.7008387,9.52609506 12.1181154,9.52609506 C13.5360581,9.52609506 14.6849313,10.6756343 14.6849313,12.092911 C14.6849313,13.5101877 13.5360581,14.659727 12.1181154,14.659727 Z"></path>
            </g>
        </g>
    </g>
</svg>