<?xml version="1.0" encoding="UTF-8"?>
<svg width="24px" height="24px" viewBox="0 0 24 24" version="1.1" xmlns="http://www.w3.org/2000/svg" xmlns:xlink="http://www.w3.org/1999/xlink">
    <!-- Generator: Sketch 47 (45396) - http://www.bohemiancoding.com/sketch -->
    <title>浏览器-百度</title>
    <desc>Created with Sketch.</desc>
    <defs></defs>
    <g id="__wesketch_export" stroke="none" stroke-width="1" fill="none" fill-rule="evenodd">
        <g id="浏览器-百度" fill-rule="nonzero" fill="#FFFFFF">
            <g id="Shape">
                <path d="M23.9829787,11.8365957 C23.9285106,18.7540425 18.6995745,23.8740426 12.1634043,23.9829787 C5.57276597,24.0919149 0.125957438,18.6451064 0.0170212851,12.1089362 C-0.0919148936,5.57276597 5.24595746,-0.0374467915 12,0.0170212851 C18.8085106,0.0714893617 23.8740426,5.35489363 23.9829787,11.8365957 Z M19.2442553,4.81021277 L19.1353192,4.70127659 C19.026383,4.75574466 18.8085106,4.81021277 18.6995745,4.86468084 C17.5012766,5.68170212 16.3029787,6.4987234 15.1046809,7.42468085 C14.7234043,7.75148936 14.4510638,7.69702129 14.0697872,7.47914893 C12.5446809,6.77106383 10.9651064,6.82553191 9.54893617,7.64255318 C7.2612766,8.94978723 6.4987234,11.6187234 7.64255318,13.9608511 C7.80595744,14.3421277 7.75148936,14.5055319 7.58808511,14.8323404 C6.82553191,15.867234 6.11744681,16.8476596 5.35489361,17.8825532 C5.30042553,17.9914894 5.30042553,18.2093617 5.30042553,18.372766 C5.46382979,18.372766 5.68170212,18.372766 5.7906383,18.3182979 C6.82553191,17.6102128 7.75148936,17.0110638 8.67744682,16.2485106 C9.0587234,15.9217021 9.38553191,15.8127659 9.87574468,16.1395745 C10.2025532,16.3029787 10.5838298,16.466383 10.9651064,16.5208511 C12.9259575,16.8476596 14.56,16.3574468 15.7582979,14.7778723 C16.9565957,13.252766 17.12,11.5642553 16.2485106,9.8212766 C16.1395745,9.54893617 16.1395745,9.0587234 16.2485106,8.89531915 C16.6842553,8.18723405 17.2834042,7.58808511 17.773617,6.88000001 C18.372766,6.06297873 18.8085106,5.46382979 19.2442553,4.81021277 Z"></path>
            </g>
        </g>
    </g>
</svg>