<?xml version="1.0" encoding="UTF-8"?>
<svg width="24px" height="24px" viewBox="0 0 24 24" version="1.1" xmlns="http://www.w3.org/2000/svg" xmlns:xlink="http://www.w3.org/1999/xlink">
    <!-- Generator: Sketch 47 (45396) - http://www.bohemiancoding.com/sketch -->
    <title>猎豹浏览器-2</title>
    <desc>Created with Sketch.</desc>
    <defs></defs>
    <g id="__wesketch_export" stroke="none" stroke-width="1" fill="none" fill-rule="evenodd">
        <g id="猎豹浏览器-2" fill-rule="nonzero" fill="#FFFFFF">
            <g transform="translate(0.000000, 0.011707)" id="Shape">
                <path d="M7.75852294,10.133603 C8.39656854,9.36742881 9.08367234,8.66935905 9.9098707,8.11317335 C9.48998995,8.86030136 9.03730752,9.61012276 8.79740315,10.1909338 L8.19215923,10.002781 L7.75852294,10.133603 L7.75852294,10.133603 Z M16.055809,23.0171603 C15.9467265,23.0581585 15.8349507,23.0991568 15.7231749,23.1371603 C15.8349508,23.0991568 15.943937,23.0581585 16.055809,23.0171603 Z M18.4688006,1.94818895 C18.5588369,2.00821314 18.648777,2.06544775 18.7388133,2.12547191 C18.6492449,2.06571638 18.5592383,2.00662046 18.4688006,1.94818895 L18.4688006,1.94818895 Z"></path>
                <path d="M9.03461411,0.483945015 C12.3447942,-0.404970896 15.701243,0.205852168 18.3897303,1.89913072 C16.4375013,2.23445816 14.7470123,2.76072794 13.345486,3.50785592 C12.2630305,2.79891639 11.9657953,3.18060866 11.210491,4.48950153 C11.6031492,4.28499604 11.9903245,3.59240926 12.3366179,3.82413724 C12.7647712,4.19495977 12.8547113,4.80299326 12.7702542,5.55560422 C12.4483937,4.87667677 12.1784772,4.45948943 11.9604086,4.31500814 C10.1088932,5.40563995 8.322885,7.12344761 6.5888208,9.367525 C6.44154992,9.87195906 6.41432741,10.2918398 6.53149,10.6109107 L6.7905367,10.8971799 L4.33656702,13.0648804 L4.27933241,13.6129859 L5.78176479,14.9408287 L5.96991756,14.8972534 C6.06813022,13.6620441 6.50975049,13.0895057 7.06054937,12.9476216 C9.25547237,12.3777766 9.97537787,14.0083375 9.80906084,15.2162281 C9.68362567,16.1241902 8.71842903,16.5250248 7.91675979,16.6150611 L7.8595252,16.8768011 L9.55011032,18.2183033 C10.2045087,16.2332726 11.3823872,14.9026402 13.1738784,14.3355848 C14.3135684,13.869243 15.0252013,13.2421634 15.5132826,12.486859 C15.8622694,11.1153448 15.4178596,9.78740574 14.1554278,8.50313821 C15.4996233,9.5747239 16.3776694,10.8643782 16.666632,12.4296244 C23.147994,12.2686941 20.7239402,21.7411653 12.0967135,23.6988773 C13.391947,23.6825246 14.5997414,23.483502 15.7096118,23.1344191 C15.5264476,23.1925462 15.3418955,23.2462055 15.1561195,23.2953493 C8.85742733,24.9859344 2.3815484,21.2503906 0.688366057,14.9516984 C-1.00231525,8.65310248 2.73322857,2.17453016 9.03461411,0.483945015 Z"></path>
                <path d="M11.9953265,23.9765854 C5.38497029,23.9765854 0.00703380293,18.5986489 0.00703380293,11.9882927 C0.00703380293,5.37793648 5.38497029,0 11.9953265,0 C18.6056827,0 23.9836192,5.37793648 23.9836192,11.9882927 C23.9836192,18.5985527 18.6055865,23.9765854 11.9953265,23.9765854 Z M11.9953265,0.571768882 C5.70019348,0.571768882 0.578802685,5.69315967 0.578802685,11.9882927 C0.578802685,18.2832333 5.70019348,23.4048165 11.9953265,23.4048165 C18.2904595,23.4048165 23.4118503,18.2833295 23.4118503,11.9882927 C23.4117541,5.69315967 18.2903633,0.571768882 11.9953265,0.571768882 Z"></path>
            </g>
        </g>
    </g>
</svg>